<?xml version="1.0" encoding="UTF-8"?>
<svg id="a" data-name="Layer 1" xmlns="http://www.w3.org/2000/svg" viewBox="0 0 1393.92 1492.84">
  <defs>
    <style>
      .b, .c {
        fill: none;
      }

      .d {
        fill: #22301a;
      }

      .e {
        fill: #fff;
      }

      .c {
        stroke: #3c9946;
        stroke-miterlimit: 10;
        stroke-width: 5px;
      }
    </style>
  </defs>
  <polygon class="c" points="696.96 139.04 170.95 442.73 170.95 1050.11 696.96 1353.8 1222.97 1050.11 1222.97 442.73 696.96 139.04"/>
  <line class="c" x1="696.96" y1="139.04" x2="696.96" y2="1353.8"/>
  <line class="c" x1="170.95" y1="442.73" x2="1222.97" y2="1050.11"/>
  <line class="c" x1="170.95" y1="1050.11" x2="1222.97" y2="442.73"/>
  <circle class="d" cx="696.9" cy="746.42" r="192.4"/>
  <g>
    <g>
      <path class="e" d="M696.84,859.6c-1.57,1.19-3.17,2.3-4.79,3.33-.8.52-1.6,1.02-2.44,1.49-.42.25-.82.5-1.24.72-.43.23-.84.47-1.25.68-.84.47-1.67.89-2.49,1.29-1.24.6-2.48,1.17-3.73,1.7-.04.03-.07.04-.1.04-.84.37-1.67.69-2.51,1-.43.17-.85.33-1.29.47-.43.16-.86.3-1.29.44-.86.3-1.72.55-2.58.8-.87.25-1.74.48-2.61.68-.84.21-1.68.39-2.52.55-.07,0-.12.03-.18.04-.42.08-.82.16-1.24.22-.4.08-.8.14-1.2.21-.34.05-.65.09-.98.14-.43.05-.84.12-1.25.16-2.4.29-4.79.43-7.19.43-48.88-.01-88.66-57.23-88.66-127.57s39.78-127.53,88.66-127.53c2.4,0,4.79.14,7.19.43.42.04.82.1,1.25.16.33.05.64.09.98.14.4.07.8.13,1.2.21.42.07.82.14,1.24.22.07,0,.12.03.18.04.85.17,1.68.35,2.52.55.87.21,1.74.44,2.61.68.86.25,1.72.51,2.58.8.43.14.86.29,1.29.44.43.16.86.31,1.29.47,1.76.65,3.51,1.4,5.26,2.22.37.17.73.35,1.1.52.52.26,1.06.51,1.58.8.31.16.61.33.91.5.42.22.84.46,1.25.68,1.64.93,3.28,1.93,4.88,3,.08.04.14.09.22.14.73.5,1.46.99,2.18,1.51.4.29.78.56,1.19.87-27.28,24.45-44.1,67.37-44.1,113.15s16.82,88.73,44.1,113.18h-.01Z"/>
      <path class="e" d="M684.63,867.1c-1.24.61-2.48,1.17-3.73,1.7,1.25-.52,2.49-1.1,3.73-1.7Z"/>
      <path class="e" d="M703.96,630.63c.99.82,1.98,1.67,2.95,2.54l.08-.07-3.03-2.48h0ZM706.93,859.67c-.84.74-1.7,1.49-2.56,2.21l2.62-2.15-.07-.05h0ZM680.89,868.8c1.25-.52,2.49-1.08,3.73-1.7-1.24.6-2.48,1.17-3.73,1.7ZM696.51,625.15c1.16.76,2.31,1.55,3.44,2.39-1.14-.84-2.28-1.62-3.44-2.39Z"/>
    </g>
    <g>
      <path class="e" d="M703.96,630.63c.99.82,1.98,1.67,2.95,2.54l.08-.07-3.03-2.48h0ZM696.51,625.15c1.16.76,2.31,1.55,3.44,2.39-1.14-.84-2.28-1.62-3.44-2.39Z"/>
      <path class="e" d="M818.17,711.48c-7.37,11.87-20.11,18.97-34.08,18.97-18.27,0-34.23-12.33-38.79-29.97-7.16-27.73-20.73-51.45-38.4-67.29l.08-.07-3.03-2.48c-.73-.59-1.46-1.17-2.21-1.75-.04-.03-.08-.05-.12-.08-.56-.43-1.12-.85-1.68-1.28-1.14-.84-2.28-1.62-3.44-2.39-.57-.39-1.16-.76-1.74-1.12-.78-.5-1.57-.97-2.37-1.44-.78-.47-1.58-.9-2.39-1.33-.8-.44-1.6-.85-2.43-1.25-.74-.38-1.5-.72-2.27-1.07-.05-.03-.12-.05-.17-.08h62.67c15.36,0,30.56,5.78,43.92,16.74,11.05,9.13,20.82,21.86,28.24,36.8,6.24,12.55,5.56,27.17-1.81,39.05h0l.03.03Z"/>
    </g>
    <g>
      <path class="e" d="M823.41,813.06c-7.8,18.25-18.75,33.52-31.64,44.17-13.37,10.96-28.56,16.74-43.93,16.74h-62.67s.12-.05.17-.08c.63-.29,1.27-.57,1.88-.89,1.04-.5,2.07-1.03,3.09-1.58.61-.34,1.23-.68,1.84-1.03.18-.1.37-.21.55-.33.61-.37,1.23-.73,1.84-1.11.91-.56,1.81-1.16,2.71-1.76.61-.43,1.24-.85,1.85-1.3.72-.5,1.45-1.03,2.15-1.57.44-.34.87-.67,1.32-1.03.47-.35.93-.72,1.4-1.1.13-.1.26-.22.39-.34l2.62-2.15-.07-.05c18.66-16.7,32.61-41.98,39.46-71.62,4.19-18.16,20.24-30.83,39.01-30.83h1.12c13.52,0,26.04,6.73,33.48,18.02,7.44,11.29,8.72,25.42,3.42,37.84h0Z"/>
      <path class="e" d="M706.99,859.71l-2.62,2.15c.86-.7,1.72-1.46,2.56-2.21l.07.05h0Z"/>
    </g>
  </g>
  <g>
    <circle class="d" cx="696.51" cy="170.95" r="170.95"/>
    <g>
      <rect class="b" x="563.67" y="111.24" width="265.68" height="119.42"/>
      <path class="e" d="M576.01,111.24h18.1v6.22h-11.26v12.13h8.83v6.22h-8.83v18.97h-6.84v-43.54Z"/>
      <path class="e" d="M599.77,152.57c-1.74-1.89-2.61-4.59-2.61-8.12v-33.21h6.84v33.71c0,1.49.3,2.57.9,3.23.6.66,1.46,1,2.58,1s1.98-.33,2.58-1c.6-.66.9-1.74.9-3.23v-33.71h6.59v33.21c0,3.52-.87,6.23-2.61,8.12-1.74,1.89-4.27,2.83-7.59,2.83s-5.85-.94-7.59-2.83Z"/>
      <path class="e" d="M622.41,111.24h8.58l6.66,26.06h.12v-26.06h6.09v43.54h-7.03l-8.21-31.78h-.12v31.78h-6.1v-43.54Z"/>
      <path class="e" d="M648.96,111.24h10.45c3.4,0,5.95.91,7.65,2.74,1.7,1.83,2.55,4.5,2.55,8.02v22.02c0,3.52-.85,6.2-2.55,8.02-1.7,1.83-4.25,2.74-7.65,2.74h-10.45v-43.54ZM659.29,148.56c1.12,0,1.98-.33,2.58-1,.6-.66.9-1.74.9-3.23v-22.64c0-1.49-.3-2.57-.9-3.23-.6-.66-1.46-1-2.58-1h-3.48v31.1h3.48Z"/>
      <path class="e" d="M674.22,111.24h10.14c3.52,0,6.1.82,7.71,2.46,1.62,1.64,2.43,4.16,2.43,7.56v2.67c0,4.52-1.49,7.38-4.48,8.58v.12c1.66.5,2.83,1.51,3.51,3.05.68,1.53,1.03,3.59,1.03,6.16v7.65c0,1.24.04,2.25.12,3.02.08.77.29,1.52.62,2.27h-6.97c-.25-.7-.42-1.37-.5-1.99-.08-.62-.12-1.74-.12-3.36v-7.96c0-1.99-.32-3.38-.96-4.17-.64-.79-1.75-1.18-3.33-1.18h-2.36v18.66h-6.84v-43.54ZM683.55,129.9c1.37,0,2.39-.35,3.08-1.06.68-.7,1.03-1.89,1.03-3.54v-3.36c0-1.58-.28-2.72-.84-3.42-.56-.7-1.44-1.06-2.64-1.06h-3.11v12.44h2.49Z"/>
      <path class="e" d="M704.57,111.24h9.27l7.09,43.54h-6.84l-1.24-8.65v.12h-7.77l-1.24,8.52h-6.34l7.09-43.54ZM712.03,140.35l-3.05-21.52h-.12l-2.99,21.52h6.16Z"/>
      <path class="e" d="M724.22,111.24h6.84v43.54h-6.84v-43.54Z"/>
      <path class="e" d="M737.53,152.57c-1.7-1.89-2.55-4.59-2.55-8.12v-2.49h6.47v2.99c0,2.82,1.18,4.23,3.54,4.23,1.16,0,2.04-.34,2.64-1.03.6-.68.9-1.79.9-3.33,0-1.82-.42-3.43-1.24-4.82-.83-1.39-2.36-3.06-4.6-5.01-2.82-2.49-4.79-4.74-5.91-6.75-1.12-2.01-1.68-4.28-1.68-6.81,0-3.44.87-6.1,2.61-7.99,1.74-1.89,4.27-2.83,7.59-2.83s5.75.94,7.43,2.83c1.68,1.89,2.52,4.59,2.52,8.12v1.8h-6.47v-2.24c0-1.49-.29-2.58-.87-3.27-.58-.68-1.43-1.03-2.55-1.03-2.28,0-3.42,1.39-3.42,4.17,0,1.58.42,3.05,1.28,4.42.85,1.37,2.39,3.03,4.63,4.98,2.86,2.49,4.83,4.75,5.91,6.78,1.08,2.03,1.62,4.42,1.62,7.15,0,3.57-.88,6.3-2.64,8.21-1.76,1.91-4.32,2.86-7.68,2.86s-5.83-.94-7.53-2.83Z"/>
      <path class="e" d="M759.3,111.24h6.84v43.54h-6.84v-43.54Z"/>
      <path class="e" d="M771.24,111.24h8.58l6.65,26.06h.12v-26.06h6.09v43.54h-7.03l-8.21-31.78h-.12v31.78h-6.1v-43.54Z"/>
      <path class="e" d="M799.91,152.57c-1.74-1.89-2.61-4.59-2.61-8.12v-22.89c0-3.52.87-6.23,2.61-8.12,1.74-1.89,4.27-2.83,7.59-2.83s5.85.94,7.59,2.83c1.74,1.89,2.61,4.59,2.61,8.12v3.73h-6.47v-4.17c0-2.86-1.18-4.29-3.54-4.29s-3.54,1.43-3.54,4.29v23.82c0,2.82,1.18,4.23,3.54,4.23s3.54-1.41,3.54-4.23v-8.52h-3.42v-6.22h9.89v14.24c0,3.52-.87,6.23-2.61,8.12-1.74,1.89-4.27,2.83-7.59,2.83s-5.85-.94-7.59-2.83Z"/>
      <path class="e" d="M607.42,227.21c-1.7-1.89-2.55-4.59-2.55-8.12v-2.49h6.47v2.99c0,2.82,1.18,4.23,3.55,4.23,1.16,0,2.04-.34,2.64-1.03.6-.68.9-1.79.9-3.33,0-1.82-.42-3.43-1.24-4.82-.83-1.39-2.36-3.06-4.6-5.01-2.82-2.49-4.79-4.74-5.91-6.75-1.12-2.01-1.68-4.28-1.68-6.81,0-3.44.87-6.1,2.61-7.99,1.74-1.89,4.27-2.83,7.59-2.83s5.75.94,7.43,2.83c1.68,1.89,2.52,4.59,2.52,8.12v1.8h-6.47v-2.24c0-1.49-.29-2.58-.87-3.27-.58-.68-1.43-1.03-2.55-1.03-2.28,0-3.42,1.39-3.42,4.17,0,1.58.42,3.05,1.27,4.42.85,1.37,2.39,3.03,4.63,4.98,2.86,2.49,4.83,4.75,5.91,6.78,1.08,2.03,1.62,4.42,1.62,7.15,0,3.57-.88,6.3-2.64,8.21-1.76,1.91-4.32,2.86-7.68,2.86s-5.83-.94-7.53-2.83Z"/>
      <path class="e" d="M634.53,192.1h-7.15v-6.22h21.15v6.22h-7.15v37.32h-6.84v-37.32Z"/>
      <path class="e" d="M651.82,185.88h10.14c3.52,0,6.09.82,7.71,2.46,1.62,1.64,2.43,4.16,2.43,7.56v2.67c0,4.52-1.49,7.38-4.48,8.58v.12c1.66.5,2.83,1.51,3.51,3.05.68,1.53,1.03,3.59,1.03,6.16v7.65c0,1.24.04,2.25.12,3.02.08.77.29,1.52.62,2.27h-6.97c-.25-.7-.42-1.37-.5-1.99s-.12-1.74-.12-3.36v-7.96c0-1.99-.32-3.38-.96-4.17-.64-.79-1.75-1.18-3.33-1.18h-2.36v18.66h-6.84v-43.54ZM661.15,204.54c1.37,0,2.39-.35,3.08-1.06.68-.7,1.03-1.89,1.03-3.54v-3.36c0-1.58-.28-2.72-.84-3.42-.56-.7-1.44-1.06-2.64-1.06h-3.11v12.44h2.49Z"/>
      <path class="e" d="M682.18,185.88h9.27l7.09,43.54h-6.84l-1.24-8.65v.12h-7.78l-1.24,8.52h-6.34l7.09-43.54ZM689.64,214.99l-3.05-21.52h-.12l-2.99,21.52h6.16Z"/>
      <path class="e" d="M704.32,192.1h-7.15v-6.22h21.15v6.22h-7.15v37.32h-6.84v-37.32Z"/>
      <path class="e" d="M721.61,185.88h18.66v6.22h-11.82v11.51h9.39v6.22h-9.39v13.37h11.82v6.22h-18.66v-43.54Z"/>
      <path class="e" d="M746.3,227.21c-1.74-1.89-2.61-4.59-2.61-8.12v-22.89c0-3.52.87-6.23,2.61-8.12,1.74-1.89,4.27-2.83,7.59-2.83s5.85.94,7.59,2.83c1.74,1.89,2.61,4.59,2.61,8.12v3.73h-6.47v-4.17c0-2.86-1.18-4.29-3.54-4.29s-3.54,1.43-3.54,4.29v23.82c0,2.82,1.18,4.23,3.54,4.23s3.54-1.41,3.54-4.23v-8.52h-3.42v-6.22h9.89v14.24c0,3.52-.87,6.23-2.61,8.12-1.74,1.89-4.27,2.83-7.59,2.83s-5.85-.94-7.59-2.83Z"/>
      <path class="e" d="M773.85,210.88l-8.27-25h7.28l4.67,15.98h.12l4.67-15.98h6.66l-8.27,25v18.53h-6.84v-18.53Z"/>
    </g>
  </g>
  <g>
    <circle class="d" cx="696.85" cy="1321.89" r="170.95"/>
    <g>
      <rect class="b" x="564.01" y="1262.18" width="265.68" height="119.42"/>
      <path class="e" d="M582.91,1300.12h10.45c3.4,0,5.95.91,7.65,2.74,1.7,1.83,2.55,4.5,2.55,8.02v22.02c0,3.52-.85,6.2-2.55,8.02-1.7,1.83-4.25,2.74-7.65,2.74h-10.45v-43.54ZM593.23,1337.44c1.12,0,1.98-.33,2.58-1,.6-.66.9-1.74.9-3.23v-22.64c0-1.49-.3-2.57-.9-3.23-.6-.66-1.46-1-2.58-1h-3.48v31.1h3.48Z"/>
      <path class="e" d="M608.16,1300.12h6.84v43.54h-6.84v-43.54Z"/>
      <path class="e" d="M620.1,1300.12h10.14c3.52,0,6.1.82,7.71,2.46,1.62,1.64,2.43,4.16,2.43,7.56v2.67c0,4.52-1.49,7.38-4.48,8.58v.12c1.66.5,2.83,1.51,3.51,3.05.68,1.54,1.03,3.59,1.03,6.16v7.65c0,1.24.04,2.25.12,3.02.08.77.29,1.52.62,2.27h-6.97c-.25-.7-.42-1.37-.5-1.99-.08-.62-.12-1.74-.12-3.36v-7.96c0-1.99-.32-3.38-.96-4.17-.64-.79-1.75-1.18-3.33-1.18h-2.36v18.66h-6.84v-43.54ZM629.43,1318.78c1.37,0,2.39-.35,3.08-1.06.68-.7,1.03-1.89,1.03-3.54v-3.36c0-1.58-.28-2.72-.84-3.42-.56-.71-1.44-1.06-2.64-1.06h-3.11v12.44h2.49Z"/>
      <path class="e" d="M645.17,1300.12h18.66v6.22h-11.82v11.51h9.39v6.22h-9.39v13.37h11.82v6.22h-18.66v-43.54Z"/>
      <path class="e" d="M669.89,1341.48c-1.72-1.87-2.58-4.5-2.58-7.9v-23.39c0-3.4.86-6.03,2.58-7.9,1.72-1.87,4.22-2.8,7.5-2.8s5.77.93,7.49,2.8c1.72,1.87,2.58,4.5,2.58,7.9v4.6h-6.47v-5.04c0-2.7-1.14-4.04-3.42-4.04s-3.42,1.35-3.42,4.04v24.32c0,2.65,1.14,3.98,3.42,3.98s3.42-1.33,3.42-3.98v-6.66h6.47v6.16c0,3.4-.86,6.03-2.58,7.9-1.72,1.87-4.22,2.8-7.49,2.8s-5.77-.93-7.5-2.8Z"/>
      <path class="e" d="M696.91,1306.34h-7.15v-6.22h21.15v6.22h-7.15v37.32h-6.84v-37.32Z"/>
      <path class="e" d="M724.16,1300.12h9.77l4.35,31.16h.12l4.35-31.16h9.76v43.54h-6.47v-32.96h-.12l-4.98,32.96h-5.72l-4.98-32.96h-.12v32.96h-5.97v-43.54Z"/>
      <path class="e" d="M762.9,1300.12h9.27l7.09,43.54h-6.84l-1.24-8.65v.12h-7.78l-1.24,8.52h-6.34l7.09-43.54ZM770.37,1329.23l-3.05-21.52h-.12l-2.99,21.52h6.16Z"/>
      <path class="e" d="M782.56,1300.12h6.84v43.54h-6.84v-43.54Z"/>
      <path class="e" d="M794.5,1300.12h6.84v37.32h11.26v6.22h-18.1v-43.54Z"/>
    </g>
  </g>
  <g>
    <circle class="d" cx="1222.97" cy="1050.11" r="170.95"/>
    <g>
      <rect class="b" x="1090.13" y="990.4" width="265.68" height="119.42"/>
      <path class="e" d="M1155.08,990.4h6.84v37.32h11.26v6.22h-18.1v-43.54Z"/>
      <path class="e" d="M1176.48,990.4h18.66v6.22h-11.82v11.51h9.39v6.22h-9.39v13.37h11.82v6.22h-18.66v-43.54Z"/>
      <path class="e" d="M1201.17,1031.73c-1.74-1.89-2.61-4.59-2.61-8.12v-22.89c0-3.52.87-6.23,2.61-8.12,1.74-1.89,4.27-2.83,7.59-2.83s5.85.94,7.59,2.83c1.74,1.89,2.61,4.59,2.61,8.12v3.73h-6.47v-4.17c0-2.86-1.18-4.29-3.54-4.29s-3.55,1.43-3.55,4.29v23.82c0,2.82,1.18,4.23,3.55,4.23s3.54-1.41,3.54-4.23v-8.52h-3.42v-6.22h9.89v14.24c0,3.52-.87,6.23-2.61,8.12-1.74,1.89-4.27,2.83-7.59,2.83s-5.85-.94-7.59-2.83Z"/>
      <path class="e" d="M1228.66,990.4h9.27l7.09,43.54h-6.84l-1.24-8.65v.12h-7.77l-1.24,8.52h-6.34l7.09-43.54ZM1236.12,1019.51l-3.05-21.52h-.12l-2.99,21.52h6.16Z"/>
      <path class="e" d="M1250.33,1031.76c-1.72-1.87-2.58-4.5-2.58-7.9v-23.39c0-3.4.86-6.03,2.58-7.9,1.72-1.87,4.22-2.8,7.49-2.8s5.77.93,7.5,2.8c1.72,1.87,2.58,4.5,2.58,7.9v4.6h-6.47v-5.04c0-2.7-1.14-4.04-3.42-4.04s-3.42,1.35-3.42,4.04v24.32c0,2.65,1.14,3.98,3.42,3.98s3.42-1.33,3.42-3.98v-6.66h6.47v6.16c0,3.4-.86,6.03-2.58,7.9-1.72,1.87-4.22,2.8-7.5,2.8s-5.77-.93-7.49-2.8Z"/>
      <path class="e" d="M1277.73,1015.41l-8.27-25h7.28l4.67,15.98h.12l4.67-15.98h6.66l-8.27,25v18.53h-6.84v-18.53Z"/>
      <path class="e" d="M1166.21,1106.37c-1.74-1.89-2.61-4.59-2.61-8.12v-22.89c0-3.52.87-6.23,2.61-8.12,1.74-1.89,4.27-2.83,7.59-2.83s5.85.94,7.59,2.83,2.61,4.59,2.61,8.12v3.73h-6.47v-4.17c0-2.86-1.18-4.29-3.54-4.29s-3.55,1.43-3.55,4.29v23.82c0,2.82,1.18,4.23,3.55,4.23s3.54-1.41,3.54-4.23v-8.52h-3.42v-6.22h9.89v14.24c0,3.53-.87,6.23-2.61,8.12s-4.27,2.83-7.59,2.83-5.85-.94-7.59-2.83Z"/>
      <path class="e" d="M1188.42,1065.04h6.84v43.54h-6.84v-43.54Z"/>
      <path class="e" d="M1198.56,1065.04h6.9l4.48,33.77h.12l4.48-33.77h6.28l-6.59,43.54h-9.08l-6.59-43.54Z"/>
      <path class="e" d="M1224.12,1065.04h6.84v43.54h-6.84v-43.54Z"/>
      <path class="e" d="M1236.06,1065.04h8.58l6.65,26.06h.12v-26.06h6.1v43.54h-7.03l-8.21-31.78h-.12v31.78h-6.09v-43.54Z"/>
      <path class="e" d="M1264.73,1106.37c-1.74-1.89-2.61-4.59-2.61-8.12v-22.89c0-3.52.87-6.23,2.61-8.12,1.74-1.89,4.27-2.83,7.59-2.83s5.85.94,7.59,2.83c1.74,1.89,2.61,4.59,2.61,8.12v3.73h-6.47v-4.17c0-2.86-1.18-4.29-3.54-4.29s-3.54,1.43-3.54,4.29v23.82c0,2.82,1.18,4.23,3.54,4.23s3.54-1.41,3.54-4.23v-8.52h-3.42v-6.22h9.89v14.24c0,3.53-.87,6.23-2.61,8.12-1.74,1.89-4.27,2.83-7.59,2.83s-5.85-.94-7.59-2.83Z"/>
    </g>
  </g>
  <g>
    <circle class="d" cx="1222.97" cy="442.73" r="170.95"/>
    <g>
      <rect class="b" x="1081.51" y="383.02" width="282.92" height="119.42"/>
      <path class="e" d="M1162.2,383.02h10.45c3.4,0,5.95.91,7.65,2.74,1.7,1.83,2.55,4.5,2.55,8.02v22.02c0,3.52-.85,6.2-2.55,8.02-1.7,1.83-4.25,2.74-7.65,2.74h-10.45v-43.54ZM1172.53,420.34c1.12,0,1.98-.33,2.58-1,.6-.66.9-1.74.9-3.23v-22.64c0-1.49-.3-2.57-.9-3.23-.6-.66-1.46-1-2.58-1h-3.48v31.1h3.48Z"/>
      <path class="e" d="M1189.63,424.32c-1.78-1.91-2.67-4.6-2.67-8.09v-22.89c0-3.48.89-6.18,2.67-8.09,1.78-1.91,4.35-2.86,7.71-2.86s5.93.95,7.71,2.86c1.78,1.91,2.67,4.6,2.67,8.09v22.89c0,3.48-.89,6.18-2.67,8.09-1.78,1.91-4.35,2.86-7.71,2.86s-5.93-.95-7.71-2.86ZM1200.89,416.67v-23.76c0-2.86-1.18-4.29-3.54-4.29s-3.54,1.43-3.54,4.29v23.76c0,2.86,1.18,4.29,3.54,4.29s3.54-1.43,3.54-4.29Z"/>
      <path class="e" d="M1212.33,383.02h8.58l6.66,26.06h.12v-26.06h6.1v43.54h-7.03l-8.21-31.78h-.12v31.78h-6.09v-43.54Z"/>
      <path class="e" d="M1241.06,424.32c-1.78-1.91-2.67-4.6-2.67-8.09v-22.89c0-3.48.89-6.18,2.67-8.09,1.78-1.91,4.36-2.86,7.71-2.86s5.93.95,7.71,2.86c1.78,1.91,2.67,4.6,2.67,8.09v22.89c0,3.48-.89,6.18-2.67,8.09-1.78,1.91-4.35,2.86-7.71,2.86s-5.93-.95-7.71-2.86ZM1252.32,416.67v-23.76c0-2.86-1.18-4.29-3.54-4.29s-3.54,1.43-3.54,4.29v23.76c0,2.86,1.18,4.29,3.54,4.29s3.54-1.43,3.54-4.29Z"/>
      <path class="e" d="M1263.77,383.02h10.14c3.52,0,6.09.82,7.71,2.46,1.62,1.64,2.43,4.16,2.43,7.56v2.67c0,4.52-1.49,7.38-4.48,8.58v.12c1.66.5,2.83,1.51,3.51,3.05.68,1.53,1.03,3.59,1.03,6.16v7.65c0,1.24.04,2.25.12,3.02.08.77.29,1.52.62,2.27h-6.96c-.25-.7-.42-1.37-.5-1.99-.08-.62-.12-1.74-.12-3.36v-7.96c0-1.99-.32-3.38-.96-4.17-.64-.79-1.75-1.18-3.33-1.18h-2.36v18.66h-6.84v-43.54ZM1273.1,401.68c1.37,0,2.39-.35,3.08-1.06.68-.7,1.03-1.89,1.03-3.54v-3.36c0-1.58-.28-2.72-.84-3.42-.56-.7-1.44-1.06-2.64-1.06h-3.11v12.44h2.49Z"/>
      <path class="e" d="M1095.59,498.99c-1.7-1.89-2.55-4.59-2.55-8.12v-2.49h6.47v2.99c0,2.82,1.18,4.23,3.54,4.23,1.16,0,2.04-.34,2.64-1.03s.9-1.79.9-3.33c0-1.82-.42-3.43-1.24-4.82-.83-1.39-2.36-3.06-4.6-5.01-2.82-2.49-4.79-4.74-5.91-6.75-1.12-2.01-1.68-4.28-1.68-6.81,0-3.44.87-6.1,2.61-7.99,1.74-1.89,4.27-2.83,7.59-2.83s5.75.94,7.43,2.83c1.68,1.89,2.52,4.59,2.52,8.12v1.8h-6.47v-2.24c0-1.49-.29-2.58-.87-3.27-.58-.68-1.43-1.03-2.55-1.03-2.28,0-3.42,1.39-3.42,4.17,0,1.58.42,3.05,1.27,4.42.85,1.37,2.39,3.03,4.63,4.98,2.86,2.49,4.83,4.75,5.91,6.78,1.08,2.03,1.62,4.42,1.62,7.15,0,3.57-.88,6.3-2.64,8.21-1.76,1.91-4.32,2.86-7.68,2.86s-5.83-.94-7.53-2.83Z"/>
      <path class="e" d="M1122.71,463.88h-7.15v-6.22h21.15v6.22h-7.15v37.32h-6.84v-37.32Z"/>
      <path class="e" d="M1140,457.66h18.66v6.22h-11.82v11.51h9.39v6.22h-9.39v13.37h11.82v6.22h-18.66v-43.54Z"/>
      <path class="e" d="M1160.96,457.66h6.59l3.05,33.46h.12l3.23-33.46h7.46l3.23,33.46h.12l3.05-33.46h5.91l-4.42,43.54h-8.52l-3.11-29.36h-.12l-3.11,29.36h-9.08l-4.42-43.54Z"/>
      <path class="e" d="M1201.64,457.66h9.27l7.09,43.54h-6.84l-1.24-8.65v.12h-7.77l-1.24,8.52h-6.34l7.09-43.54ZM1209.1,486.77l-3.05-21.52h-.12l-2.98,21.52h6.16Z"/>
      <path class="e" d="M1221.29,457.66h10.14c3.52,0,6.09.82,7.71,2.46,1.62,1.64,2.43,4.16,2.43,7.56v2.67c0,4.52-1.49,7.38-4.48,8.58v.12c1.66.5,2.83,1.51,3.51,3.05.68,1.53,1.03,3.59,1.03,6.16v7.65c0,1.24.04,2.25.12,3.02.08.77.29,1.52.62,2.27h-6.96c-.25-.7-.42-1.37-.5-1.99-.08-.62-.12-1.74-.12-3.36v-7.96c0-1.99-.32-3.38-.96-4.17-.64-.79-1.75-1.18-3.33-1.18h-2.36v18.66h-6.84v-43.54ZM1230.62,476.32c1.37,0,2.39-.35,3.08-1.06.68-.7,1.03-1.89,1.03-3.54v-3.36c0-1.58-.28-2.72-.84-3.42-.56-.7-1.44-1.06-2.64-1.06h-3.11v12.44h2.49Z"/>
      <path class="e" d="M1246.35,457.66h10.45c3.4,0,5.95.91,7.65,2.74,1.7,1.83,2.55,4.5,2.55,8.02v22.02c0,3.52-.85,6.2-2.55,8.02-1.7,1.83-4.25,2.74-7.65,2.74h-10.45v-43.54ZM1256.68,494.98c1.12,0,1.98-.33,2.58-1,.6-.66.9-1.74.9-3.23v-22.64c0-1.49-.3-2.57-.9-3.23-.6-.66-1.46-1-2.58-1h-3.48v31.1h3.48Z"/>
      <path class="e" d="M1272.98,498.99c-1.7-1.89-2.55-4.59-2.55-8.12v-2.49h6.47v2.99c0,2.82,1.18,4.23,3.54,4.23,1.16,0,2.04-.34,2.64-1.03.6-.68.9-1.79.9-3.33,0-1.82-.42-3.43-1.24-4.82-.83-1.39-2.36-3.06-4.6-5.01-2.82-2.49-4.79-4.74-5.91-6.75-1.12-2.01-1.68-4.28-1.68-6.81,0-3.44.87-6.1,2.61-7.99,1.74-1.89,4.27-2.83,7.59-2.83s5.75.94,7.43,2.83c1.68,1.89,2.52,4.59,2.52,8.12v1.8h-6.47v-2.24c0-1.49-.29-2.58-.87-3.27-.58-.68-1.43-1.03-2.55-1.03-2.28,0-3.42,1.39-3.42,4.17,0,1.58.42,3.05,1.28,4.42.85,1.37,2.39,3.03,4.63,4.98,2.86,2.49,4.83,4.75,5.91,6.78,1.08,2.03,1.62,4.42,1.62,7.15,0,3.57-.88,6.3-2.64,8.21-1.76,1.91-4.32,2.86-7.68,2.86s-5.83-.94-7.53-2.83Z"/>
      <path class="e" d="M1294.74,457.66h6.84v17.73h7.34v-17.73h6.84v43.54h-6.84v-19.59h-7.34v19.59h-6.84v-43.54Z"/>
      <path class="e" d="M1320.87,457.66h6.84v43.54h-6.84v-43.54Z"/>
      <path class="e" d="M1332.81,457.66h10.08c3.4,0,5.95.91,7.65,2.74,1.7,1.83,2.55,4.5,2.55,8.02v4.29c0,3.52-.85,6.2-2.55,8.02-1.7,1.83-4.25,2.74-7.65,2.74h-3.23v17.73h-6.84v-43.54ZM1342.88,477.25c1.12,0,1.96-.31,2.52-.93s.84-1.68.84-3.17v-5.16c0-1.49-.28-2.55-.84-3.17-.56-.62-1.4-.93-2.52-.93h-3.23v13.37h3.23Z"/>
    </g>
  </g>
  <g>
    <circle class="d" cx="170.95" cy="1050.11" r="170.95"/>
    <g>
      <rect class="b" x="38.11" y="990.4" width="265.68" height="119.42"/>
      <path class="e" d="M102.29,1069.67c-1.74-1.89-2.61-4.59-2.61-8.12v-22.89c0-3.52.87-6.23,2.61-8.12,1.74-1.89,4.27-2.83,7.59-2.83s5.85.94,7.59,2.83c1.74,1.89,2.61,4.59,2.61,8.12v3.73h-6.47v-4.17c0-2.86-1.18-4.29-3.55-4.29s-3.55,1.43-3.55,4.29v23.82c0,2.82,1.18,4.23,3.55,4.23s3.55-1.41,3.55-4.23v-8.52h-3.42v-6.22h9.89v14.24c0,3.53-.87,6.23-2.61,8.12-1.74,1.89-4.27,2.83-7.59,2.83s-5.85-.94-7.59-2.83Z"/>
      <path class="e" d="M124.49,1028.34h10.14c3.52,0,6.1.82,7.71,2.46,1.62,1.64,2.43,4.16,2.43,7.56v2.67c0,4.52-1.49,7.38-4.48,8.58v.12c1.66.5,2.83,1.51,3.51,3.05s1.03,3.59,1.03,6.16v7.65c0,1.24.04,2.25.12,3.02.08.77.29,1.52.62,2.27h-6.97c-.25-.71-.42-1.37-.5-1.99-.08-.62-.12-1.74-.12-3.36v-7.96c0-1.99-.32-3.38-.96-4.17-.64-.79-1.75-1.18-3.33-1.18h-2.36v18.66h-6.84v-43.54ZM133.82,1047c1.37,0,2.39-.35,3.08-1.06s1.03-1.89,1.03-3.54v-3.36c0-1.58-.28-2.71-.84-3.42-.56-.7-1.44-1.06-2.64-1.06h-3.11v12.44h2.49Z"/>
      <path class="e" d="M154.84,1028.34h9.27l7.09,43.54h-6.84l-1.24-8.65v.12h-7.77l-1.24,8.52h-6.34l7.09-43.54ZM162.31,1057.45l-3.05-21.52h-.12l-2.99,21.52h6.16Z"/>
      <path class="e" d="M174.5,1028.34h8.58l6.66,26.06h.12v-26.06h6.09v43.54h-7.03l-8.21-31.78h-.12v31.78h-6.1v-43.54Z"/>
      <path class="e" d="M206.4,1034.56h-7.15v-6.22h21.15v6.22h-7.15v37.32h-6.84v-37.32Z"/>
      <path class="e" d="M225.06,1069.67c-1.7-1.89-2.55-4.59-2.55-8.12v-2.49h6.47v2.99c0,2.82,1.18,4.23,3.54,4.23,1.16,0,2.04-.34,2.64-1.03.6-.68.9-1.79.9-3.33,0-1.82-.42-3.43-1.24-4.82-.83-1.39-2.36-3.06-4.6-5.01-2.82-2.49-4.79-4.74-5.91-6.75-1.12-2.01-1.68-4.28-1.68-6.81,0-3.44.87-6.11,2.61-7.99,1.74-1.89,4.27-2.83,7.59-2.83s5.75.94,7.43,2.83c1.68,1.89,2.52,4.59,2.52,8.12v1.8h-6.47v-2.24c0-1.49-.29-2.58-.87-3.26-.58-.68-1.43-1.03-2.55-1.03-2.28,0-3.42,1.39-3.42,4.17,0,1.58.42,3.05,1.28,4.42.85,1.37,2.39,3.03,4.63,4.98,2.86,2.49,4.83,4.75,5.91,6.78,1.08,2.03,1.62,4.42,1.62,7.15,0,3.57-.88,6.3-2.64,8.21-1.76,1.91-4.32,2.86-7.68,2.86s-5.83-.94-7.53-2.83Z"/>
    </g>
  </g>
  <g>
    <circle class="d" cx="170.95" cy="442.73" r="170.95"/>
    <g>
      <rect class="b" x="38.11" y="383.02" width="265.68" height="119.42"/>
      <path class="e" d="M54.09,420.96h9.76l4.35,31.16h.12l4.35-31.16h9.77v43.54h-6.47v-32.96h-.12l-4.98,32.96h-5.72l-4.98-32.96h-.12v32.96h-5.97v-43.54Z"/>
      <path class="e" d="M92.83,420.96h9.27l7.09,43.54h-6.84l-1.24-8.65v.12h-7.77l-1.24,8.52h-6.34l7.09-43.54ZM100.3,450.07l-3.05-21.52h-.12l-2.99,21.52h6.16Z"/>
      <path class="e" d="M110.93,464.5v-6.22c.66.17,1.41.25,2.24.25,1.37,0,2.38-.34,3.05-1.03.66-.68,1-1.73,1-3.14v-33.4h6.84v33.21c0,3.57-.82,6.22-2.46,7.96-1.64,1.74-4.14,2.61-7.5,2.61-1.24,0-2.3-.08-3.17-.25Z"/>
      <path class="e" d="M131.15,462.26c-1.78-1.91-2.67-4.6-2.67-8.09v-22.89c0-3.48.89-6.18,2.67-8.09,1.78-1.91,4.35-2.86,7.71-2.86s5.93.95,7.71,2.86c1.78,1.91,2.67,4.6,2.67,8.09v22.89c0,3.48-.89,6.18-2.67,8.09-1.78,1.91-4.35,2.86-7.71,2.86s-5.93-.95-7.71-2.86ZM142.4,454.61v-23.76c0-2.86-1.18-4.29-3.55-4.29s-3.55,1.43-3.55,4.29v23.76c0,2.86,1.18,4.29,3.55,4.29s3.55-1.43,3.55-4.29Z"/>
      <path class="e" d="M153.85,420.96h10.14c3.52,0,6.1.82,7.71,2.46,1.62,1.64,2.43,4.16,2.43,7.56v2.67c0,4.52-1.49,7.38-4.48,8.58v.12c1.66.5,2.83,1.51,3.51,3.05.68,1.53,1.03,3.59,1.03,6.16v7.65c0,1.24.04,2.25.12,3.02.08.77.29,1.52.62,2.27h-6.97c-.25-.7-.42-1.37-.5-1.99-.08-.62-.12-1.74-.12-3.36v-7.96c0-1.99-.32-3.38-.96-4.17-.64-.79-1.75-1.18-3.33-1.18h-2.36v18.66h-6.84v-43.54ZM163.18,439.62c1.37,0,2.39-.35,3.08-1.06.68-.7,1.03-1.89,1.03-3.54v-3.36c0-1.58-.28-2.72-.84-3.42-.56-.7-1.44-1.06-2.64-1.06h-3.11v12.44h2.49Z"/>
      <path class="e" d="M190.98,462.29c-1.74-1.89-2.61-4.59-2.61-8.12v-22.89c0-3.52.87-6.23,2.61-8.12,1.74-1.89,4.27-2.83,7.59-2.83s5.85.94,7.59,2.83c1.74,1.89,2.61,4.59,2.61,8.12v3.73h-6.47v-4.17c0-2.86-1.18-4.29-3.54-4.29s-3.54,1.43-3.54,4.29v23.82c0,2.82,1.18,4.23,3.54,4.23s3.54-1.41,3.54-4.23v-8.52h-3.42v-6.22h9.89v14.24c0,3.52-.87,6.23-2.61,8.12-1.74,1.89-4.27,2.83-7.59,2.83s-5.85-.94-7.59-2.83Z"/>
      <path class="e" d="M213.18,420.96h6.84v43.54h-6.84v-43.54Z"/>
      <path class="e" d="M225.12,420.96h18.1v6.22h-11.26v12.13h8.83v6.22h-8.83v18.97h-6.84v-43.54Z"/>
      <path class="e" d="M252.49,427.18h-7.15v-6.22h21.15v6.22h-7.15v37.32h-6.84v-37.32Z"/>
      <path class="e" d="M271.15,462.29c-1.7-1.89-2.55-4.59-2.55-8.12v-2.49h6.47v2.99c0,2.82,1.18,4.23,3.54,4.23,1.16,0,2.04-.34,2.64-1.03.6-.68.9-1.79.9-3.33,0-1.82-.42-3.43-1.24-4.82-.83-1.39-2.36-3.06-4.6-5.01-2.82-2.49-4.79-4.74-5.91-6.75-1.12-2.01-1.68-4.28-1.68-6.81,0-3.44.87-6.1,2.61-7.99,1.74-1.89,4.27-2.83,7.59-2.83s5.75.94,7.43,2.83c1.68,1.89,2.52,4.59,2.52,8.12v1.8h-6.47v-2.24c0-1.49-.29-2.58-.87-3.27-.58-.68-1.43-1.03-2.55-1.03-2.28,0-3.42,1.39-3.42,4.17,0,1.58.42,3.05,1.28,4.42.85,1.37,2.39,3.03,4.63,4.98,2.86,2.49,4.83,4.75,5.91,6.78,1.08,2.03,1.62,4.42,1.62,7.15,0,3.57-.88,6.3-2.64,8.21-1.76,1.91-4.32,2.86-7.68,2.86s-5.83-.94-7.53-2.83Z"/>
    </g>
  </g>
</svg>