<?xml version="1.0" encoding="UTF-8"?>
<svg id="a" xmlns="http://www.w3.org/2000/svg" version="1.1" viewBox="0 0 310 310">
  <!-- Generator: Adobe Illustrator 29.3.0, SVG Export Plug-In . SVG Version: 2.1.0 Build 146)  -->
  <defs>
    <style>
      .st0 {
        fill: #52622e;
      }

      .st1 {
        fill: #203016;
      }
    </style>
  </defs>
  <g>
    <path class="st1" d="M155.86,285.5c-1.8,1.36-3.63,2.62-5.48,3.8-.91.6-1.84,1.16-2.79,1.71-.47.28-.94.56-1.41.83-.49.27-.96.53-1.43.78-.96.53-1.92,1.02-2.86,1.47-1.41.69-2.84,1.34-4.27,1.95-.04.03-.07.04-.12.04-.96.41-1.92.8-2.87,1.15-.49.19-.97.37-1.47.53-.49.18-.99.34-1.47.5-.99.34-1.98.63-2.96.91-1,.28-1.99.55-2.99.78-.96.24-1.93.44-2.89.63-.07.01-.13.03-.21.04-.47.09-.94.18-1.41.25-.46.09-.91.16-1.37.24-.38.06-.75.1-1.12.16-.49.06-.96.13-1.43.18-2.74.32-5.48.49-8.22.49-55.94,0-101.46-65.47-101.46-145.96S53.13,10.05,109.07,10.05c2.74,0,5.48.16,8.22.49.47.04.94.12,1.43.18.37.06.74.1,1.12.16.46.07.91.15,1.37.24.47.07.94.16,1.41.25.07.01.13.03.21.04.97.19,1.93.4,2.89.63,1,.24,1.99.5,2.99.78.99.28,1.97.57,2.96.91.49.16.99.32,1.47.5.49.18.99.35,1.47.53,2.02.75,4.02,1.59,6.01,2.53.41.19.84.4,1.25.6.6.29,1.21.59,1.81.91.35.18.71.37,1.05.56.47.25.96.52,1.43.78,1.89,1.06,3.74,2.21,5.59,3.43.09.04.16.1.25.16.84.56,1.67,1.13,2.49,1.74.46.32.9.65,1.36,1-31.23,27.98-50.47,77.09-50.47,129.49s19.25,101.53,50.47,129.52h0Z"/>
    <path class="st1" d="M141.89,294.09c-1.41.71-2.84,1.34-4.27,1.95,1.43-.6,2.86-1.25,4.27-1.95Z"/>
    <path class="st1" d="M164.01,23.51c1.13.94,2.27,1.92,3.37,2.92l.09-.07s-3.46-2.84-3.46-2.84ZM167.4,285.58c-.96.85-1.94,1.71-2.93,2.52l3.01-2.46-.07-.06h0ZM137.61,296.04c1.43-.6,2.86-1.24,4.27-1.95-1.41.69-2.84,1.34-4.27,1.95ZM155.49,17.23c1.33.87,2.64,1.78,3.93,2.73-1.3-.96-2.61-1.86-3.93-2.73Z"/>
  </g>
  <g>
    <path class="st0" d="M164.01,23.51c1.13.94,2.27,1.92,3.37,2.92l.09-.07s-3.46-2.84-3.46-2.84ZM155.49,17.23c1.33.87,2.64,1.78,3.93,2.73-1.3-.96-2.61-1.86-3.93-2.73Z"/>
    <path class="st0" d="M294.7,116.01c-8.43,13.59-23,21.71-38.99,21.71-20.91,0-39.17-14.1-44.39-34.29-8.19-31.73-23.73-58.87-43.94-77l.09-.07-3.46-2.84c-.84-.68-1.67-1.34-2.52-2-.04-.03-.09-.06-.13-.09-.65-.49-1.28-.97-1.93-1.46-1.3-.96-2.61-1.86-3.93-2.73-.66-.44-1.33-.87-1.99-1.28-.9-.56-1.8-1.11-2.71-1.64-.9-.53-1.81-1.03-2.73-1.52-.91-.5-1.84-.97-2.77-1.43-.85-.43-1.72-.83-2.59-1.22-.06-.03-.13-.06-.19-.09h71.71c17.58,0,34.97,6.62,50.25,19.16,12.64,10.45,23.83,25.01,32.32,42.1,7.13,14.37,6.37,31.08-2.08,44.69Z"/>
  </g>
  <g>
    <path class="st0" d="M300.69,232.25c-8.93,20.88-21.46,38.36-36.21,50.55-15.31,12.54-32.68,19.16-50.26,19.16h-71.71c.06-.03.13-.06.19-.09.72-.32,1.44-.66,2.15-1.02,1.19-.57,2.37-1.18,3.54-1.81.71-.38,1.4-.78,2.11-1.18.21-.12.41-.24.63-.37.71-.41,1.4-.84,2.11-1.27,1.05-.65,2.08-1.33,3.11-2.02.71-.49,1.41-.97,2.12-1.49.83-.57,1.65-1.18,2.46-1.8.5-.38,1-.77,1.5-1.18.53-.4,1.06-.83,1.59-1.25.15-.12.3-.25.44-.38l3.01-2.46-.07-.06c21.35-19.11,37.31-48.03,45.15-81.96,4.79-20.78,23.15-35.28,44.64-35.28h1.28c15.47,0,29.8,7.71,38.31,20.62,8.52,12.91,9.98,29.09,3.9,43.3h0Z"/>
    <path class="st0" d="M167.47,285.63l-3.01,2.46c.99-.81,1.97-1.67,2.93-2.52l.07.06h0Z"/>
  </g>
</svg>