<?xml version="1.0" encoding="UTF-8"?>
<svg id="Layer_1" xmlns="http://www.w3.org/2000/svg" version="1.1" viewBox="0 0 200 200">
  <!-- Generator: Adobe Illustrator 29.3.0, SVG Export Plug-In . SVG Version: 2.1.0 Build 146)  -->
  <defs>
    <style>
      .st0 {
        fill: #fff;
      }
    </style>
  </defs>
  <g>
    <path class="st0" d="M100.29,186.49c-1.2.91-2.43,1.76-3.67,2.55-.61.4-1.23.78-1.87,1.14-.32.19-.63.38-.95.55-.33.18-.64.36-.96.52-.64.36-1.28.68-1.91.99-.95.46-1.9.9-2.86,1.3-.03.02-.05.03-.08.03-.64.28-1.28.53-1.92.77-.33.13-.65.25-.99.36-.33.12-.66.23-.99.34-.66.23-1.32.42-1.98.61-.67.19-1.33.37-2,.52-.64.16-1.29.3-1.93.42-.05,0-.09.02-.14.03-.32.06-.63.12-.95.17-.31.06-.61.11-.92.16-.26.04-.5.07-.75.11-.33.04-.64.09-.96.12-1.84.22-3.67.33-5.51.33C31.49,197.5,1,153.65,1,99.74S31.49,2,68.95,2c1.84,0,3.67.11,5.51.33.32.03.63.08.96.12.25.04.49.07.75.11.31.05.61.1.92.16.32.05.63.11.95.17.05,0,.09.02.14.03.65.13,1.29.27,1.93.42.67.16,1.33.34,2,.52.66.19,1.32.39,1.98.61.33.11.66.22.99.34.33.12.66.24.99.36,1.35.5,2.69,1.07,4.03,1.7.28.13.56.27.84.4.4.2.81.39,1.21.61.24.12.47.25.7.38.32.17.64.35.96.52,1.26.71,2.51,1.48,3.74,2.3.06.03.11.07.17.11.56.38,1.12.76,1.67,1.16.31.22.6.43.91.67-20.91,18.74-33.8,51.63-33.8,86.72s12.89,68,33.8,86.74h0Z"/>
    <path class="st0" d="M90.93,192.24c-.95.47-1.9.9-2.86,1.3.96-.4,1.91-.84,2.86-1.3Z"/>
    <path class="st0" d="M105.75,11.01c.76.63,1.52,1.28,2.26,1.95l.06-.05-2.32-1.9h0ZM108.02,186.54c-.64.57-1.3,1.14-1.96,1.69l2.01-1.65-.05-.04h0ZM88.07,193.54c.96-.4,1.91-.83,2.86-1.3-.95.46-1.9.9-2.86,1.3ZM100.04,6.81c.89.58,1.77,1.19,2.64,1.83-.87-.64-1.75-1.24-2.64-1.83Z"/>
  </g>
  <g>
    <path class="st0" d="M105.75,11.01c.76.63,1.52,1.28,2.26,1.95l.06-.05-2.32-1.9h0ZM100.04,6.81c.89.58,1.77,1.19,2.64,1.83-.87-.64-1.75-1.24-2.64-1.83Z"/>
    <path class="st0" d="M193.28,72.97c-5.65,9.1-15.41,14.54-26.12,14.54-14,0-26.23-9.45-29.73-22.97-5.49-21.25-15.89-39.43-29.43-51.57l.06-.05-2.32-1.9c-.56-.45-1.12-.9-1.69-1.34-.03-.02-.06-.04-.09-.06-.43-.33-.86-.65-1.29-.98-.87-.64-1.75-1.24-2.64-1.83-.44-.3-.89-.58-1.33-.86-.6-.38-1.2-.74-1.82-1.1-.6-.36-1.21-.69-1.83-1.02-.61-.34-1.23-.65-1.86-.96-.57-.29-1.15-.55-1.74-.82-.04-.02-.09-.04-.13-.06h48.03c11.77,0,23.42,4.43,33.66,12.83,8.47,7,15.96,16.75,21.64,28.2,4.78,9.62,4.26,20.82-1.39,29.93h0Z"/>
  </g>
  <g>
    <path class="st0" d="M197.29,150.82c-5.98,13.99-14.37,25.69-24.25,33.85-10.25,8.4-21.89,12.83-33.67,12.83h-48.03s.09-.04.13-.06c.48-.22.97-.44,1.44-.68.8-.38,1.59-.79,2.37-1.21.47-.26.94-.52,1.41-.79.14-.08.28-.16.42-.25.47-.28.94-.56,1.41-.85.7-.43,1.39-.89,2.08-1.35.47-.33.95-.65,1.42-1,.55-.38,1.11-.79,1.65-1.2.34-.26.67-.51,1.01-.79.36-.27.71-.55,1.07-.84.1-.08.2-.17.3-.26l2.01-1.65-.05-.04c14.3-12.8,24.99-32.17,30.24-54.89,3.21-13.92,15.51-23.63,29.9-23.63h.86c10.36,0,19.96,5.16,25.66,13.81,5.7,8.65,6.68,19.48,2.62,29h0Z"/>
    <path class="st0" d="M108.07,186.57l-2.01,1.65c.66-.54,1.32-1.12,1.96-1.69l.05.04h0Z"/>
  </g>
</svg>