<?xml version="1.0" encoding="UTF-8"?>
<svg id="a" xmlns="http://www.w3.org/2000/svg" viewBox="0 0 361.35 133.34">
  <defs>
    <style>
      .cls-1 {
        fill: #fff;
      }
    </style>
  </defs>
  <g>
    <path class="cls-1" d="M67.72,125.83c-.82.62-1.66,1.2-2.5,1.74-.42.28-.84.53-1.27.78-.22.13-.43.26-.65.38-.22.12-.44.24-.65.36-.44.24-.88.46-1.31.67-.65.32-1.3.61-1.95.89-.02.01-.03.02-.05.02-.44.19-.88.36-1.31.53-.22.09-.44.17-.67.24-.22.08-.45.15-.67.23-.45.15-.9.29-1.35.42-.46.13-.91.25-1.37.36-.44.11-.88.2-1.32.29-.03,0-.06.01-.09.02-.22.04-.43.08-.65.11-.21.04-.42.07-.63.11-.17.03-.34.05-.51.07-.22.03-.44.06-.65.08-1.25.15-2.5.22-3.76.22C20.79,133.34,0,103.43,0,66.67S20.79,0,46.35,0c1.25,0,2.5.07,3.76.22.22.02.43.05.65.08.17.03.34.05.51.07.21.03.42.07.63.11.22.03.43.07.65.11.03,0,.06.01.09.02.44.09.88.18,1.32.29.46.11.91.23,1.37.36.45.13.9.26,1.35.42.22.07.45.15.67.23.22.08.45.16.67.24.92.34,1.84.73,2.75,1.16.19.09.38.18.57.28.28.13.55.27.83.42.16.08.32.17.48.26.22.11.44.24.65.36.86.48,1.71,1.01,2.55,1.57.04.02.07.05.11.07.38.26.76.52,1.14.79.21.15.41.3.62.46-14.26,12.78-23.06,35.21-23.06,59.15s8.79,46.38,23.06,59.17h0Z"/>
    <path class="cls-1" d="M61.34,129.76c-.65.32-1.3.61-1.95.89.65-.28,1.31-.57,1.95-.89Z"/>
    <path class="cls-1" d="M71.44,6.15c.52.43,1.04.88,1.54,1.33l.04-.03-1.58-1.3h0ZM72.99,125.86c-.44.39-.89.78-1.34,1.15l1.37-1.12-.03-.03h0ZM59.39,130.64c.65-.28,1.31-.57,1.95-.89-.65.32-1.3.61-1.95.89ZM67.55,3.28c.61.4,1.21.81,1.8,1.25-.59-.44-1.19-.85-1.8-1.25Z"/>
  </g>
  <g>
    <path class="cls-1" d="M71.44,6.15c.52.43,1.04.88,1.54,1.33l.04-.03-1.58-1.3h0ZM67.55,3.28c.61.4,1.21.81,1.8,1.25-.59-.44-1.19-.85-1.8-1.25Z"/>
    <path class="cls-1" d="M131.15,48.4c-3.85,6.21-10.51,9.92-17.81,9.92-9.55,0-17.89-6.44-20.28-15.66-3.74-14.49-10.84-26.89-20.07-35.17l.04-.03-1.58-1.3c-.38-.31-.76-.61-1.15-.92-.02-.01-.04-.03-.06-.04-.3-.22-.59-.44-.88-.67-.59-.44-1.19-.85-1.8-1.25-.3-.2-.61-.4-.91-.59-.41-.26-.82-.5-1.24-.75-.41-.24-.83-.47-1.25-.69-.42-.23-.84-.44-1.27-.65-.39-.2-.79-.38-1.18-.56-.03-.01-.06-.03-.09-.04h32.76c8.03,0,15.97,3.02,22.96,8.75,5.78,4.77,10.89,11.42,14.76,19.23,3.26,6.56,2.91,14.2-.95,20.42h0Z"/>
  </g>
  <g>
    <path class="cls-1" d="M133.88,101.5c-4.08,9.54-9.8,17.52-16.54,23.09-6.99,5.73-14.93,8.75-22.96,8.75h-32.76s.06-.03.09-.04c.33-.15.66-.3.98-.46.55-.26,1.08-.54,1.62-.83.32-.18.64-.36.96-.54.09-.05.19-.11.29-.17.32-.19.64-.38.96-.58.48-.3.95-.61,1.42-.92.32-.22.65-.44.97-.68.38-.26.75-.54,1.12-.82.23-.18.46-.35.69-.54.24-.18.48-.38.73-.57.07-.05.13-.11.2-.18l1.37-1.12-.03-.03c9.75-8.73,17.05-21.94,20.63-37.44,2.19-9.49,10.58-16.12,20.39-16.12h.59c7.07,0,13.61,3.52,17.5,9.42,3.89,5.9,4.56,13.29,1.78,19.78h0Z"/>
    <path class="cls-1" d="M73.03,125.89l-1.37,1.12c.45-.37.9-.76,1.34-1.15l.03.03h0Z"/>
  </g>
  <g>
    <path class="cls-1" d="M189.06,73.77h16.76v25.97c0,12.08-3.93,24.31-20.38,24.31h-3.78c-17.21,0-20.99-12.38-20.99-23.71V31.79c0-11.48,4.98-22.5,20.39-22.5h3.93c18.72,0,20.84,12.38,20.84,23.4v20.08h-16.76v-19.78c0-4.83-1.51-7.4-5.74-7.4s-5.29,2.42-5.29,7.4v66.74c0,4.98,1.66,7.7,5.44,7.7,4.08,0,5.59-3.02,5.59-7.55v-26.12Z"/>
    <path class="cls-1" d="M260.03,97.63c0,15.7-5.29,26.43-21.74,26.43h-2.87c-16.31,0-22.05-10.72-22.05-26.43v-62.51c0-15.55,5.89-25.82,21.9-25.82h2.87c16.61,0,21.89,10.27,21.89,25.67v62.67ZM242.66,34.21c0-5.89-1.96-8.61-5.89-8.61-4.38,0-6.04,2.87-6.04,8.61v64.63c0,4.83,1.36,8.61,6.19,8.61,4.53,0,5.74-3.78,5.74-8.61V34.21Z"/>
    <path class="cls-1" d="M285.55,122.69h-17.06V10.35h27.63c11.33,0,17.06,4.83,17.06,17.37v19.93c0,9.36-4.38,12.99-7.4,14.35,3.78,1.66,7.4,4.68,7.4,12.23v39.41c0,4.53.91,6.64,1.66,8.3v.75h-16.91c-.75-1.21-1.66-3.17-1.66-9.21v-33.82c0-4.98-.91-7.1-6.34-7.1h-4.38v50.13ZM285.55,56.55h4.53c4.68,0,6.19-3.02,6.19-8v-15.7c0-4.83-1.06-7.25-6.19-7.25h-4.53v30.96Z"/>
    <path class="cls-1" d="M360.44,10.35v16.31h-21.74v29.44h17.06v17.06h-17.06v32.46h22.65v17.06h-39.71V10.35h38.81Z"/>
  </g>
</svg>