<?xml version="1.0" encoding="UTF-8"?>
<svg id="Layer_1" xmlns="http://www.w3.org/2000/svg" version="1.1" viewBox="0 0 24 24">
  <!-- Generator: Adobe Illustrator 29.3.0, SVG Export Plug-In . SVG Version: 2.1.0 Build 146)  -->
  <path d="M20,21c-2.1,0-4.1-.5-6.2-1.4-2-.9-3.9-2.2-5.6-3.9s-3-3.5-3.9-5.6c-.9-2-1.4-4.1-1.4-6.2v-1.1h5.9l.9,5-2.9,2.9c.4.7.8,1.3,1.2,1.9s.9,1.1,1.5,1.6c.5.5,1,.9,1.6,1.4s1.2.9,1.9,1.2l2.9-2.9,5,1v5.9h-1.1ZM6,9l1.7-1.7-.4-2.4h-2.2c0,.8.2,1.5.4,2.1s.4,1.3.6,1.9ZM15,17.9c.7.3,1.3.5,2,.7s1.3.3,2,.3v-2.2l-2.4-.5-1.7,1.7Z"/>
</svg>